<mxfile host="65bd71144e" scale="3" border="0">
    <diagram id="GgbF_YsU5TmStQ3wo0LS" name="Page-1">
        <mxGraphModel dx="202" dy="96" grid="1" gridSize="10" guides="1" tooltips="1" connect="1" arrows="1" fold="1" page="1" pageScale="1" pageWidth="583" pageHeight="827" math="0" shadow="0">
            <root>
                <mxCell id="0"/>
                <mxCell id="1" parent="0"/>
                <mxCell id="21" value="" style="ellipse;whiteSpace=wrap;html=1;aspect=fixed;dashed=1;fillColor=none;opacity=75;strokeWidth=0.5;" parent="1" vertex="1">
                    <mxGeometry x="240" y="40" width="200" height="200" as="geometry"/>
                </mxCell>
                <mxCell id="29" value="" style="verticalLabelPosition=bottom;shadow=0;dashed=0;align=center;html=1;verticalAlign=top;shape=mxgraph.electrical.radio.aerial_-_antenna_1;fillColor=none;rotation=270;" parent="1" vertex="1">
                    <mxGeometry x="432" y="130" width="16" height="20" as="geometry"/>
                </mxCell>
                <mxCell id="30" value="" style="verticalLabelPosition=bottom;shadow=0;dashed=0;align=center;html=1;verticalAlign=top;shape=mxgraph.electrical.radio.aerial_-_antenna_1;fillColor=none;direction=south;" parent="1" vertex="1">
                    <mxGeometry x="230" y="132" width="20" height="16" as="geometry"/>
                </mxCell>
                <mxCell id="31" value="" style="verticalLabelPosition=bottom;shadow=0;dashed=0;align=center;html=1;verticalAlign=top;shape=mxgraph.electrical.radio.aerial_-_antenna_1;fillColor=none;direction=west;" parent="1" vertex="1">
                    <mxGeometry x="332" y="30" width="16" height="20" as="geometry"/>
                </mxCell>
                <mxCell id="32" value="" style="verticalLabelPosition=bottom;shadow=0;dashed=0;align=center;html=1;verticalAlign=top;shape=mxgraph.electrical.radio.aerial_-_antenna_1;fillColor=none;" parent="1" vertex="1">
                    <mxGeometry x="332" y="230" width="16" height="20" as="geometry"/>
                </mxCell>
                <mxCell id="33" value="" style="verticalLabelPosition=bottom;shadow=0;dashed=0;align=center;html=1;verticalAlign=top;shape=mxgraph.electrical.radio.aerial_-_antenna_1;fillColor=none;rotation=135;" parent="1" vertex="1">
                    <mxGeometry x="262" y="60" width="16" height="20" as="geometry"/>
                </mxCell>
                <mxCell id="36" value="" style="verticalLabelPosition=bottom;shadow=0;dashed=0;align=center;html=1;verticalAlign=top;shape=mxgraph.electrical.radio.aerial_-_antenna_1;fillColor=none;rotation=225;" parent="1" vertex="1">
                    <mxGeometry x="402" y="60" width="16" height="20" as="geometry"/>
                </mxCell>
                <mxCell id="37" value="" style="verticalLabelPosition=bottom;shadow=0;dashed=0;align=center;html=1;verticalAlign=top;shape=mxgraph.electrical.radio.aerial_-_antenna_1;fillColor=none;rotation=315;" parent="1" vertex="1">
                    <mxGeometry x="402" y="200" width="16" height="20" as="geometry"/>
                </mxCell>
                <mxCell id="38" value="" style="verticalLabelPosition=bottom;shadow=0;dashed=0;align=center;html=1;verticalAlign=top;shape=mxgraph.electrical.radio.aerial_-_antenna_1;fillColor=none;rotation=45;" parent="1" vertex="1">
                    <mxGeometry x="262" y="200" width="16" height="20" as="geometry"/>
                </mxCell>
                <mxCell id="39" value="" style="ellipse;whiteSpace=wrap;html=1;aspect=fixed;strokeWidth=1;fillColor=#000000;opacity=75;" parent="1" vertex="1">
                    <mxGeometry x="350" y="120" width="10" height="10" as="geometry"/>
                </mxCell>
                <mxCell id="51" value="" style="endArrow=classic;html=1;strokeWidth=0.9;startSize=6;entryX=0.5;entryY=1;entryDx=0;entryDy=0;endSize=1;" parent="1" edge="1">
                    <mxGeometry width="50" height="50" relative="1" as="geometry">
                        <mxPoint x="340" y="230" as="sourcePoint"/>
                        <mxPoint x="355.00000000000006" y="130" as="targetPoint"/>
                    </mxGeometry>
                </mxCell>
                <mxCell id="52" value="" style="endArrow=classic;html=1;strokeWidth=0.9;startSize=6;entryX=0.5;entryY=0;entryDx=0;entryDy=0;endSize=1;exitX=0;exitY=1;exitDx=0;exitDy=0;entryPerimeter=0;dashed=1;dashPattern=1 2;" parent="1" source="39" target="38" edge="1">
                    <mxGeometry width="50" height="50" relative="1" as="geometry">
                        <mxPoint x="350" y="239.99999999999994" as="sourcePoint"/>
                        <mxPoint x="365" y="140" as="targetPoint"/>
                    </mxGeometry>
                </mxCell>
                <mxCell id="53" value="" style="endArrow=classic;html=1;strokeWidth=0.9;startSize=6;entryX=0.5;entryY=0;entryDx=0;entryDy=0;endSize=1;exitX=0;exitY=0.5;exitDx=0;exitDy=0;entryPerimeter=0;dashed=1;dashPattern=1 2;" parent="1" source="39" target="30" edge="1">
                    <mxGeometry width="50" height="50" relative="1" as="geometry">
                        <mxPoint x="361.46446609406735" y="138.53553390593265" as="sourcePoint"/>
                        <mxPoint x="280.00000000000006" y="210" as="targetPoint"/>
                    </mxGeometry>
                </mxCell>
                <mxCell id="54" value="" style="endArrow=classic;html=1;strokeWidth=0.9;startSize=6;entryX=0.5;entryY=0;entryDx=0;entryDy=0;endSize=1;exitX=0;exitY=0;exitDx=0;exitDy=0;entryPerimeter=0;dashed=1;dashPattern=1 2;" parent="1" source="39" target="33" edge="1">
                    <mxGeometry width="50" height="50" relative="1" as="geometry">
                        <mxPoint x="360.00000000000017" y="135" as="sourcePoint"/>
                        <mxPoint x="250" y="140" as="targetPoint"/>
                    </mxGeometry>
                </mxCell>
                <mxCell id="55" value="" style="endArrow=classic;html=1;strokeWidth=0.9;startSize=6;endSize=1;exitX=0.5;exitY=0;exitDx=0;exitDy=0;dashed=1;dashPattern=1 2;entryX=0.5;entryY=0;entryDx=0;entryDy=0;entryPerimeter=0;" parent="1" source="39" target="31" edge="1">
                    <mxGeometry width="50" height="50" relative="1" as="geometry">
                        <mxPoint x="361.46446609406723" y="131.4644660940673" as="sourcePoint"/>
                        <mxPoint x="361" y="60" as="targetPoint"/>
                    </mxGeometry>
                </mxCell>
                <mxCell id="56" value="" style="endArrow=classic;html=1;strokeWidth=0.9;startSize=6;endSize=1;exitX=1;exitY=0;exitDx=0;exitDy=0;dashed=1;dashPattern=1 2;entryX=0.5;entryY=0;entryDx=0;entryDy=0;entryPerimeter=0;" parent="1" source="39" target="36" edge="1">
                    <mxGeometry width="50" height="50" relative="1" as="geometry">
                        <mxPoint x="365" y="130" as="sourcePoint"/>
                        <mxPoint x="350" y="60" as="targetPoint"/>
                    </mxGeometry>
                </mxCell>
                <mxCell id="57" value="" style="endArrow=classic;html=1;strokeWidth=0.9;startSize=6;endSize=1;exitX=1;exitY=0.5;exitDx=0;exitDy=0;dashed=1;dashPattern=1 2;entryX=0.5;entryY=0;entryDx=0;entryDy=0;entryPerimeter=0;" parent="1" source="39" target="29" edge="1">
                    <mxGeometry width="50" height="50" relative="1" as="geometry">
                        <mxPoint x="368.53553390593265" y="131.4644660940673" as="sourcePoint"/>
                        <mxPoint x="412.92893218813447" y="87.07106781186545" as="targetPoint"/>
                    </mxGeometry>
                </mxCell>
                <mxCell id="58" value="" style="endArrow=classic;html=1;strokeWidth=0.9;startSize=6;endSize=1;exitX=1;exitY=1;exitDx=0;exitDy=0;dashed=1;dashPattern=1 2;entryX=0.5;entryY=0;entryDx=0;entryDy=0;entryPerimeter=0;" parent="1" source="39" target="37" edge="1">
                    <mxGeometry width="50" height="50" relative="1" as="geometry">
                        <mxPoint x="370" y="135" as="sourcePoint"/>
                        <mxPoint x="440" y="150" as="targetPoint"/>
                    </mxGeometry>
                </mxCell>
            </root>
        </mxGraphModel>
    </diagram>
</mxfile>